<svg width="48" height="48" viewBox="0 0 48 48" fill="none" xmlns="http://www.w3.org/2000/svg">
<g filter="url(#filter0_ii_2525_330)">
<path d="M23.6009 18.8188C24.7108 21.4362 25.7197 22.443 28.3431 23.5503C25.7197 24.6577 24.7108 25.6644 23.6009 28.2819C22.491 25.6644 21.4821 24.6577 18.8587 23.5503C21.4821 22.443 22.3901 21.4362 23.6009 18.8188ZM23.6009 1L17.1435 16C16.9417 16.4027 16.8408 16.604 16.8408 16.7047C16.7399 16.8054 16.4372 16.906 16.1345 17.0067L1 23.5503L16.0336 29.9933C16.4372 30.1946 16.639 30.2953 16.7399 30.2953C16.8408 30.396 16.9417 30.698 17.0426 31L23.5 46L29.9574 31C30.1592 30.5973 30.2601 30.396 30.2601 30.2953C30.361 30.1946 30.6637 30.094 30.9664 29.9933L46 23.5503L30.9664 17.1074C30.5628 16.906 30.361 16.8054 30.2601 16.8054C30.1592 16.7047 30.0583 16.4027 29.9574 16.1007L23.6009 1Z" fill="#DBF227"/>
</g>
<defs>
<filter id="filter0_ii_2525_330" x="-3" y="-4" width="53" height="55" filterUnits="userSpaceOnUse" color-interpolation-filters="sRGB">
<feFlood flood-opacity="0" result="BackgroundImageFix"/>
<feBlend mode="normal" in="SourceGraphic" in2="BackgroundImageFix" result="shape"/>
<feColorMatrix in="SourceAlpha" type="matrix" values="0 0 0 0 0 0 0 0 0 0 0 0 0 0 0 0 0 0 127 0" result="hardAlpha"/>
<feOffset dx="4" dy="6"/>
<feGaussianBlur stdDeviation="2.5"/>
<feComposite in2="hardAlpha" operator="arithmetic" k2="-1" k3="1"/>
<feColorMatrix type="matrix" values="0 0 0 0 1 0 0 0 0 1 0 0 0 0 1 0 0 0 0.25 0"/>
<feBlend mode="normal" in2="shape" result="effect1_innerShadow_2525_330"/>
<feColorMatrix in="SourceAlpha" type="matrix" values="0 0 0 0 0 0 0 0 0 0 0 0 0 0 0 0 0 0 127 0" result="hardAlpha"/>
<feOffset dx="-4" dy="-6"/>
<feGaussianBlur stdDeviation="2.5"/>
<feComposite in2="hardAlpha" operator="arithmetic" k2="-1" k3="1"/>
<feColorMatrix type="matrix" values="0 0 0 0 0.214286 0 0 0 0 0.241667 0 0 0 0 0 0 0 0 0.25 0"/>
<feBlend mode="normal" in2="effect1_innerShadow_2525_330" result="effect2_innerShadow_2525_330"/>
</filter>
</defs>
</svg>
