<svg width="48" height="48" viewBox="0 0 48 48" fill="none" xmlns="http://www.w3.org/2000/svg">
<g clip-path="url(#clip0_2491_15620)">
<g filter="url(#filter0_ii_2491_15620)">
<path fill-rule="evenodd" clip-rule="evenodd" d="M45.4056 23.0374L44.7318 27.329C42.9739 38.5249 32.206 46.5429 20.671 44.7318C9.28662 42.9443 1.4581 32.1996 3.24559 20.8152C5.04739 9.33961 15.5834 1.42406 27.1848 3.24562L31.468 3.91813L30.8164 8.20457C29.9104 14.1638 29.3287 17.982 28.9557 20.4256C31.4964 20.8215 35.3707 21.4319 41.1159 22.3511L45.4056 23.0374ZM23.3613 28.3835L18.983 27.7468L19.6866 23.3837L19.6874 23.3784L19.695 23.3299L19.7431 23.02C19.7936 22.693 19.8858 22.0929 20.0525 21.0038C20.3049 19.3543 20.7274 16.5858 21.4328 11.9501C16.5807 12.9496 12.6852 16.8715 11.8538 22.1668C10.8128 28.797 15.3924 35.0826 22.0226 36.1236C27.222 36.94 32.1568 34.3232 34.6244 30.1398C30.9511 29.5565 28.3825 29.1542 26.6354 28.8833C25.4025 28.6921 24.5795 28.5665 24.0666 28.489L23.5181 28.4067L23.3955 28.3886L23.3613 28.3835Z" fill="#FFE92C"/>
</g>
</g>
<defs>
<filter id="filter0_ii_2491_15620" x="2.99129" y="-1.53937" width="46.0336" height="51.051" filterUnits="userSpaceOnUse" color-interpolation-filters="sRGB">
<feFlood flood-opacity="0" result="BackgroundImageFix"/>
<feBlend mode="normal" in="SourceGraphic" in2="BackgroundImageFix" result="shape"/>
<feColorMatrix in="SourceAlpha" type="matrix" values="0 0 0 0 0 0 0 0 0 0 0 0 0 0 0 0 0 0 127 0" result="hardAlpha"/>
<feOffset dx="3.61929" dy="5.42894"/>
<feGaussianBlur stdDeviation="2.26206"/>
<feComposite in2="hardAlpha" operator="arithmetic" k2="-1" k3="1"/>
<feColorMatrix type="matrix" values="0 0 0 0 1 0 0 0 0 1 0 0 0 0 1 0 0 0 0.25 0"/>
<feBlend mode="normal" in2="shape" result="effect1_innerShadow_2491_15620"/>
<feColorMatrix in="SourceAlpha" type="matrix" values="0 0 0 0 0 0 0 0 0 0 0 0 0 0 0 0 0 0 127 0" result="hardAlpha"/>
<feOffset dy="-5.42894"/>
<feGaussianBlur stdDeviation="2.26206"/>
<feComposite in2="hardAlpha" operator="arithmetic" k2="-1" k3="1"/>
<feColorMatrix type="matrix" values="0 0 0 0 0.533333 0 0 0 0 0.481555 0 0 0 0 0.0155556 0 0 0 1 0"/>
<feBlend mode="normal" in2="effect1_innerShadow_2491_15620" result="effect2_innerShadow_2491_15620"/>
</filter>
<clipPath id="clip0_2491_15620">
<rect width="48" height="48" fill="white"/>
</clipPath>
</defs>
</svg>
