<svg width="48" height="48" viewBox="0 0 48 48" fill="none" xmlns="http://www.w3.org/2000/svg">
<g filter="url(#filter0_ii_2525_316)">
<path d="M28.855 40.6226H10.71C5.31556 40.6226 1 36.209 1 30.9126V15.71C1 10.4136 5.41365 6 10.71 6H28.855C31.307 6 33.5629 6.88273 35.4264 8.55011L43.7633 16.1023C45.823 17.9659 47 20.6141 47 23.3603C47 26.1066 45.823 28.7548 43.7633 30.6183L35.4264 38.1706C33.5629 39.7399 31.307 40.6226 28.855 40.6226ZM10.8081 30.8145H28.855L37.0938 23.3603L28.7569 15.8081H10.8081V30.8145Z" fill="#F2B4AE"/>
</g>
<defs>
<filter id="filter0_ii_2525_316" x="-2.92324" y="1.09595" width="53.8465" height="44.4307" filterUnits="userSpaceOnUse" color-interpolation-filters="sRGB">
<feFlood flood-opacity="0" result="BackgroundImageFix"/>
<feBlend mode="normal" in="SourceGraphic" in2="BackgroundImageFix" result="shape"/>
<feColorMatrix in="SourceAlpha" type="matrix" values="0 0 0 0 0 0 0 0 0 0 0 0 0 0 0 0 0 0 127 0" result="hardAlpha"/>
<feOffset dx="3.92324" dy="5.88486"/>
<feGaussianBlur stdDeviation="2.45203"/>
<feComposite in2="hardAlpha" operator="arithmetic" k2="-1" k3="1"/>
<feColorMatrix type="matrix" values="0 0 0 0 1 0 0 0 0 1 0 0 0 0 1 0 0 0 0.25 0"/>
<feBlend mode="normal" in2="shape" result="effect1_innerShadow_2525_316"/>
<feColorMatrix in="SourceAlpha" type="matrix" values="0 0 0 0 0 0 0 0 0 0 0 0 0 0 0 0 0 0 127 0" result="hardAlpha"/>
<feOffset dx="-3.92324" dy="-5.88486"/>
<feGaussianBlur stdDeviation="2.45203"/>
<feComposite in2="hardAlpha" operator="arithmetic" k2="-1" k3="1"/>
<feColorMatrix type="matrix" values="0 0 0 0 0.35 0 0 0 0 0.130607 0 0 0 0 0.109375 0 0 0 0.25 0"/>
<feBlend mode="normal" in2="effect1_innerShadow_2525_316" result="effect2_innerShadow_2525_316"/>
</filter>
</defs>
</svg>
